<svg xmlns="http://www.w3.org/2000/svg" width="61.904" height="69.777" viewBox="0 0 61.904 69.777">
  <g id="Grupo_1765" data-name="Grupo 1765" transform="translate(-1343.05 -716.112)">
    <g id="Grupo_1761" data-name="Grupo 1761" transform="translate(630.484 19.55)">
      <g id="Trazado_1429" data-name="Trazado 1429" transform="translate(715 699)" fill="none" stroke-linecap="round" stroke-linejoin="round" stroke-miterlimit="10">
        <path d="M56.462,25.113a25.173,25.173,0,1,0-49.952,5l-.007,0L.736,40.306A1.337,1.337,0,0,0,1.9,42.3H3.723a2.4,2.4,0,0,1,2.4,2.4v10a2.4,2.4,0,0,0,2.4,2.4h4.609a2.4,2.4,0,0,1,2.4,2.4v2.437a2.4,2.4,0,0,0,2.4,2.4H46.911a2.4,2.4,0,0,0,2.4-2.4V43.315h0A25.091,25.091,0,0,0,56.462,25.113Z" stroke="none"/>
        <path d="M 31.29758644104004 0.5611953735351562 C 17.39319610595703 0.5600128173828125 6.123306274414062 11.83087539672852 6.123306274414062 25.73466110229492 C 6.123306274414062 27.22756958007812 6.260631561279297 28.68727874755859 6.509876251220703 30.10923004150391 L 6.502708435058594 30.10663223266602 L 0.7361221313476562 40.30635452270508 C 0.2324142456054688 41.1972770690918 0.8766937255859375 42.30101776123047 1.899723052978516 42.30101776123047 L 3.723217010498047 42.30101776123047 C 5.048862457275391 42.30101776123047 6.123306274414062 43.37544631958008 6.123306274414062 44.70111083984375 L 6.123306274414062 54.69907760620117 C 6.123306274414062 56.02473831176758 7.19775390625 57.09917068481445 8.523399353027344 57.09917068481445 L 13.13289260864258 57.09917068481445 C 14.45853805541992 57.09917068481445 15.53298568725586 58.17426300048828 15.53298568725586 59.49990844726562 L 15.53298568725586 61.93709182739258 C 15.53298568725586 63.26273727416992 16.60742950439453 64.33782958984375 17.93307876586914 64.33782958984375 L 46.91115570068359 64.33782958984375 C 48.23680114746094 64.33782958984375 49.31189346313477 63.26273727416992 49.31189346313477 61.93709182739258 L 49.31189346313477 43.31494140625 L 49.30733871459961 43.31362915039062 C 53.8699836730957 38.63904571533203 56.63321685791016 32.19955444335938 56.46206283569336 25.11252212524414 C 56.13990783691406 11.76755523681641 45.27118682861328 0.89556884765625 31.92687797546387 0.568878173828125 C 31.71726989746094 0.5637626647949219 31.50604057312012 0.5612106323242188 31.29758644104004 0.5611953735351562 M 31.29540061950684 -2.438796997070312 L 31.29540061950684 0.5611991882324219 L 31.29570770263672 -2.438796997070312 C 31.53112411499023 -2.43878173828125 31.76737022399902 -2.435905456542969 31.99995422363281 -2.430229187011719 C 35.65650939941406 -2.340705871582031 39.20629119873047 -1.55059814453125 42.55104827880859 -0.081817626953125 C 45.78079986572266 1.336463928222656 48.69053649902344 3.328140258789062 51.19944763183594 5.837879180908203 C 53.7083854675293 8.347629547119141 55.69909286499023 11.25806045532227 57.11630630493164 14.48832321166992 C 58.583984375 17.8336296081543 59.3729248046875 21.38376998901367 59.46118545532227 25.04012298583984 C 59.55466079711914 28.91090774536133 58.87561416625977 32.67839813232422 57.44289398193359 36.23792266845703 C 56.2192268371582 39.27804565429688 54.49576568603516 42.04921722412109 52.31189346313477 44.49123764038086 L 52.31189346313477 61.93709182739258 C 52.31189346313477 64.91507720947266 49.88913726806641 67.33782958984375 46.91115570068359 67.33782958984375 L 17.93307876586914 67.33782958984375 C 14.95546340942383 67.33782958984375 12.53298568725586 64.91507720947266 12.53298568725586 61.93709182739258 L 12.53298568725586 60.09917068481445 L 8.523399353027344 60.09917068481445 C 5.545783996582031 60.09917068481445 3.123306274414062 57.67669296264648 3.123306274414062 54.69907760620117 L 3.123306274414062 45.30101776123047 L 1.899723052978516 45.30101776123047 C 0.3635711669921875 45.30101776123047 -1.071693420410156 44.47657012939453 -1.845939636230469 43.14939880371094 C -2.620155334472656 41.8222770690918 -2.631446838378906 40.16712188720703 -1.875385284423828 38.82986450195312 L 3.383739471435547 29.52771759033203 C 3.210762023925781 28.25744247436523 3.123306274414062 26.98587036132812 3.123306274414062 25.73466110229492 C 3.123306274414062 21.93260192871094 3.868522644042969 18.24271011352539 5.338245391845703 14.76747894287109 C 6.757232666015625 11.41220092773438 8.788032531738281 8.399524688720703 11.37422943115234 5.813091278076172 C 13.96049118041992 3.226615905761719 16.97303009033203 1.195602416992188 20.32814025878906 -0.223541259765625 C 23.80333709716797 -1.693473815917969 27.49324607849121 -2.438796997070312 31.29540061950684 -2.438796997070312 Z" stroke="none" fill="#fff"/>
      </g>
      <g id="Trazado_1430" data-name="Trazado 1430" transform="translate(706.842 694.432)" fill="none" stroke-linecap="round" stroke-linejoin="round" stroke-miterlimit="10">
        <path d="M55.309,31V27.676l-3.429-.193A12.337,12.337,0,0,0,49.6,21.977l2.289-2.562-2.349-2.349-2.561,2.289a12.336,12.336,0,0,0-5.507-2.283l-.193-3.428H37.955l-.193,3.428a12.336,12.336,0,0,0-5.507,2.283l-2.561-2.289-2.349,2.349,2.289,2.562a12.337,12.337,0,0,0-2.282,5.506l-3.429.193V31l3.429.193A12.337,12.337,0,0,0,29.634,36.7l-2.289,2.562,2.349,2.349,2.561-2.289A12.337,12.337,0,0,0,37.763,41.6l.193,3.428h3.322l.193-3.428a12.337,12.337,0,0,0,5.507-2.283l2.561,2.289,2.349-2.349L49.6,36.7A12.337,12.337,0,0,0,51.88,31.19ZM39.616,34.806a5.469,5.469,0,1,1,5.469-5.469A5.469,5.469,0,0,1,39.616,34.806Z" stroke="none"/>
        <path d="M 41.27679061889648 45.02933120727539 L 41.46942138671875 41.60100936889648 C 43.51027679443359 41.29513168334961 45.38779067993164 40.49142074584961 46.97634506225586 39.31805419921875 L 49.53783416748047 41.60750961303711 L 51.88651275634766 39.25883102416992 L 49.59770202636719 36.69669723510742 C 50.77041244506836 35.10878753662109 51.57413482666016 33.23127365112305 51.88000106811523 31.19042015075684 L 55.30897903442383 30.99714279174805 L 55.30897903442383 27.6755428314209 L 51.88000106811523 27.48290824890137 C 51.57413482666016 25.44205284118652 50.77041244506836 23.56454277038574 49.59770202636719 21.97663116455078 L 51.88651275634766 19.41449737548828 L 49.53783416748047 17.06582069396973 L 46.97634506225586 19.35527610778809 C 45.38779067993164 18.18190956115723 43.51027679443359 17.37819671630859 41.46942138671875 17.07233047485352 L 41.27679061889648 13.64399719238281 L 37.9551887512207 13.64399719238281 L 37.76255798339844 17.07233047485352 C 35.72170257568359 17.37819671630859 33.84418869018555 18.18190956115723 32.25563430786133 19.35527610778809 L 29.69414520263672 17.06582069396973 L 27.34546661376953 19.41449737548828 L 29.63427925109863 21.97663116455078 C 28.46155548095703 23.56454277038574 27.65784454345703 25.44205284118652 27.35197830200195 27.48290824890137 L 23.92300033569336 27.6755428314209 L 23.92300033569336 30.99714279174805 L 27.35197830200195 31.19042015075684 C 27.65784454345703 33.23127365112305 28.46155548095703 35.10878753662109 29.63427925109863 36.69669723510742 L 27.34546661376953 39.25883102416992 L 29.69414520263672 41.60750961303711 L 32.25563430786133 39.31805419921875 C 33.84418869018555 40.49142074584961 35.72170257568359 41.29513168334961 37.76255798339844 41.60100936889648 L 37.9551887512207 45.02933120727539 L 41.27679061889648 45.02933120727539 M 39.61598968505859 23.8678092956543 C 42.63628005981445 23.8678092956543 45.08517837524414 26.31605339050293 45.08517837524414 29.33634185791016 C 45.08517837524414 32.35727691650391 42.63628005981445 34.80551910400391 39.61598968505859 34.80551910400391 C 36.59569931030273 34.80551910400391 34.14680099487305 32.35727691650391 34.14680099487305 29.33634185791016 C 34.14680099487305 26.31605339050293 36.59569931030273 23.8678092956543 39.61598968505859 23.8678092956543 M 41.27679061889648 48.02933120727539 L 37.9551887512207 48.02933120727539 C 36.36372375488281 48.02933120727539 35.04920196533203 46.78659820556641 34.95991134643555 45.1976318359375 L 34.89249420166016 43.99776077270508 C 34.10125732421875 43.74227142333984 33.3306884765625 43.42270660400391 32.58997344970703 43.04289245605469 L 31.69336700439453 43.84427642822266 C 30.50669288635254 44.90492630004883 28.69825744628906 44.85425567626953 27.57282257080078 43.72883224487305 L 25.22414588928223 41.38015365600586 C 24.09893417358398 40.25494384765625 24.04804611206055 38.44692993164062 25.10816764831543 37.26020812988281 L 25.90985488891602 36.36278533935547 C 25.53005981445312 35.62204360961914 25.21052169799805 34.85137939453125 24.95504760742188 34.06007385253906 L 23.7541675567627 33.99238586425781 C 22.1654224395752 33.9028434753418 20.92300033569336 32.58840942382812 20.92300033569336 30.99714279174805 L 20.92300033569336 27.6755428314209 C 20.92300033569336 26.08406448364258 22.16575622558594 24.76953125 23.75473403930664 24.68026351928711 L 24.95518493652344 24.61282539367676 C 25.21063613891602 23.82167434692383 25.53012847900391 23.0511474609375 25.90985488891602 22.3105411529541 L 25.10816764831543 21.41312026977539 C 24.04804611206055 20.22639846801758 24.09893417358398 18.41838645935059 25.22414588928223 17.29317474365234 L 27.57282257080078 14.94449710845947 C 28.69825744628906 13.81907558441162 30.50669479370117 13.76839637756348 31.69336700439453 14.82905292510986 L 32.58996963500977 15.63043403625488 C 33.33068466186523 15.25061893463135 34.10125350952148 14.93105411529541 34.89249420166016 14.67556571960449 L 34.95991134643555 13.47569751739502 C 35.04920196533203 11.88673114776611 36.36372375488281 10.64399719238281 37.9551887512207 10.64399719238281 L 41.27679061889648 10.64399719238281 C 42.86825561523438 10.64399719238281 44.18277740478516 11.88673114776611 44.27206802368164 13.47569751739502 L 44.33948516845703 14.67556571960449 C 45.1307258605957 14.93105411529541 45.90129470825195 15.25061893463135 46.64200973510742 15.63043403625488 L 47.53861236572266 14.82905292510986 C 48.72528457641602 13.76839923858643 50.53371810913086 13.8190746307373 51.65915679931641 14.94449710845947 L 54.00783538818359 17.29317474365234 C 55.1330451965332 18.41838645935059 55.18393325805664 20.22639846801758 54.12381362915039 21.41312026977539 L 53.32212066650391 22.31054496765137 C 53.70185089111328 23.05115127563477 54.02134704589844 23.82167816162109 54.27679443359375 24.61282539367676 L 55.47724533081055 24.68026351928711 C 57.06622314453125 24.76953125 58.30897903442383 26.08406448364258 58.30897903442383 27.6755428314209 L 58.30897903442383 30.99714279174805 C 58.30897903442383 32.58840942382812 57.06655502319336 33.9028434753418 55.47781372070312 33.99238586425781 L 54.27693557739258 34.06007385253906 C 54.02146148681641 34.85137176513672 53.70191955566406 35.62203979492188 53.32212066650391 36.3627815246582 L 54.12381362915039 37.26020812988281 C 55.18393325805664 38.44692993164062 55.1330451965332 40.25494384765625 54.00783538818359 41.38015365600586 L 51.65915679931641 43.72883224487305 C 50.53372192382812 44.85425567626953 48.72528457641602 44.90492630004883 47.53861236572266 43.84427642822266 L 46.64200592041016 43.04289245605469 C 45.90129089355469 43.42270660400391 45.13072204589844 43.74227142333984 44.33948516845703 43.99776077270508 L 44.27206802368164 45.1976318359375 C 44.18277740478516 46.78659820556641 42.86825561523438 48.02933120727539 41.27679061889648 48.02933120727539 Z M 39.61598968505859 26.8678092956543 C 38.25447845458984 26.8678092956543 37.14680099487305 27.97518730163574 37.14680099487305 29.33634185791016 C 37.14680099487305 30.69785308837891 38.25447845458984 31.80551910400391 39.61598968505859 31.80551910400391 C 40.97750091552734 31.80551910400391 42.08517837524414 30.69785308837891 42.08517837524414 29.33634185791016 C 42.08517837524414 27.97518730163574 40.97750091552734 26.8678092956543 39.61598968505859 26.8678092956543 Z" stroke="none" fill="#fff"/>
      </g>
    </g>
  </g>
</svg>
