<svg xmlns="http://www.w3.org/2000/svg" width="37.637" height="62.416" viewBox="0 0 37.637 62.416">
  <g id="Grupo_1768" data-name="Grupo 1768" transform="translate(-1763.178 -719.285)">
    <g id="Grupo_1764" data-name="Grupo 1764" transform="translate(1763.815 719.93)">
      <g id="Grupo_1668" data-name="Grupo 1668" transform="translate(0 0)">
        <path id="Trazado_1439" data-name="Trazado 1439" d="M36.192,18.377a17.817,17.817,0,1,0-34.047,7.33,41.992,41.992,0,0,1,2.935,9.968L6.42,43.12a12.15,12.15,0,0,0,23.913,0l1.341-7.451A49.213,49.213,0,0,1,34.8,25.262,17.665,17.665,0,0,0,36.192,18.377Z" transform="translate(-0.192 -0.191)" fill="none" stroke="#fff" stroke-linecap="round" stroke-miterlimit="10" stroke-width="2"/>
        <line id="Línea_19" data-name="Línea 19" x2="24.136" transform="translate(6.117 42.308)" fill="none" stroke="#fff" stroke-linecap="round" stroke-miterlimit="10" stroke-width="2"/>
        <line id="Línea_20" data-name="Línea 20" x2="22.218" transform="translate(7.076 45.683)" fill="none" stroke="#fff" stroke-linecap="round" stroke-miterlimit="10" stroke-width="2"/>
        <line id="Línea_21" data-name="Línea 21" x2="18.299" transform="translate(9.036 48.76)" fill="none" stroke="#fff" stroke-linecap="round" stroke-miterlimit="10" stroke-width="2"/>
        <path id="Trazado_1440" data-name="Trazado 1440" d="M28.373,30.621,27.1,29a.7.7,0,0,0-1.013-.09L24.341,30.46a.7.7,0,0,1-.928,0l-1.745-1.551a.7.7,0,0,0-1.013.09l-1.274,1.622a.7.7,0,0,1-1,.1l-.569-.479a.7.7,0,0,0-1.13.695l4.985,21.181h4.417L31.07,30.941a.7.7,0,0,0-1.129-.695l-.569.479A.7.7,0,0,1,28.373,30.621Z" transform="translate(-5.692 -9.814)" fill="none" stroke="#fff" stroke-linecap="round" stroke-miterlimit="10" stroke-width="2"/>
        <path id="Trazado_1441" data-name="Trazado 1441" d="M19.507,78.489V81.54a1.5,1.5,0,0,0,1.5,1.5h3.846" transform="translate(-6.663 -26.81)" fill="none" stroke="#fff" stroke-linecap="round" stroke-miterlimit="10" stroke-width="2"/>
        <path id="Trazado_1442" data-name="Trazado 1442" d="M32.96,78.489V81.54a1.5,1.5,0,0,1-1.5,1.5H27.619" transform="translate(-9.434 -26.81)" fill="none" stroke="#fff" stroke-linecap="round" stroke-miterlimit="10" stroke-width="2"/>
        <path id="Trazado_1443" data-name="Trazado 1443" d="M22.729,85.394v1.327a3.22,3.22,0,0,0,3.22,3.22" transform="translate(-7.764 -29.168)" fill="none" stroke="#fff" stroke-linecap="round" stroke-miterlimit="10" stroke-width="2"/>
        <path id="Trazado_1444" data-name="Trazado 1444" d="M30.839,85.394v1.327a3.22,3.22,0,0,1-3.22,3.22" transform="translate(-9.434 -29.168)" fill="none" stroke="#fff" stroke-linecap="round" stroke-miterlimit="10" stroke-width="2"/>
      </g>
    </g>
  </g>
</svg>
