<svg xmlns="http://www.w3.org/2000/svg" width="116.814" height="31.324" viewBox="0 0 116.814 31.324">
  <g id="Grupo_1780" data-name="Grupo 1780" transform="translate(-166 -62.838)">
    <path id="Trazado_1427" data-name="Trazado 1427" d="M31.757,0a14.626,14.626,0,0,1,1.787.089A3.567,3.567,0,0,1,34.8.47a4.318,4.318,0,0,1,1.029.806A15.06,15.06,0,0,1,36.948,2.64L53.593,24.476a.619.619,0,0,0,.583.315h.4c.239,0,.36-.15.36-.446V.984A.868.868,0,0,1,55.919,0h4.7A.868.868,0,0,1,61.6.984V26.671c0,1.821-.325,3.05-.982,3.693a4.22,4.22,0,0,1-3.044.961H53.73A13.772,13.772,0,0,1,52,31.235a3.777,3.777,0,0,1-1.228-.357,4.064,4.064,0,0,1-1.052-.785,13.141,13.141,0,0,1-1.184-1.409L31.846,6.847a.769.769,0,0,0-.583-.315h-.4c-.241,0-.36.15-.36.449V30.34a.87.87,0,0,1-.984.984h-4.7q-1.028,0-1.029-.984V4.653q0-2.728.987-3.69A4.2,4.2,0,0,1,27.818,0Z" transform="translate(221.211 62.838)" fill="#fff"/>
    <path id="Trazado_1428" data-name="Trazado 1428" d="M50.942,6.958A9.18,9.18,0,0,0,48.5,3.018,10.209,10.209,0,0,0,44.252.737,22.886,22.886,0,0,0,38.032,0H1.341A1.185,1.185,0,0,0,0,1.341V6.218H37.854a13.03,13.03,0,0,1,3.31.36A4.861,4.861,0,0,1,43.336,7.74,4.6,4.6,0,0,1,44.52,9.887a13.066,13.066,0,0,1,.36,3.312v4.924a13.015,13.015,0,0,1-.36,3.31,4.585,4.585,0,0,1-1.184,2.149,4.89,4.89,0,0,1-2.173,1.165,13.162,13.162,0,0,1-3.31.357H0v4.879a1.186,1.186,0,0,0,1.341,1.341H38.032a22.878,22.878,0,0,0,6.22-.74A10.209,10.209,0,0,0,48.5,28.3a9.164,9.164,0,0,0,2.438-3.939,18.248,18.248,0,0,0,.782-5.659V12.619a18.265,18.265,0,0,0-.782-5.661" transform="translate(184 62.838)" fill="#fff"/>
    <rect id="Rectángulo_709" data-name="Rectángulo 709" width="8" height="31" rx="1" transform="translate(166 63)" fill="#fff"/>
  </g>
</svg>
