<svg xmlns="http://www.w3.org/2000/svg" width="43.086" height="37.98" viewBox="0 0 43.086 37.98">
  <g id="Group_1511" data-name="Group 1511" transform="translate(0 0)">
    <path id="Path_1402" data-name="Path 1402" d="M15.778,40q4.765,0,9.531,0a9.586,9.586,0,0,1,1.846.076,5.215,5.215,0,0,1,4.336,4.084,5.292,5.292,0,0,1,.122,1.279q.013,6.043,0,12.086a5.315,5.315,0,0,1-5.47,5.373H7.531c-.712,0-1.424,0-2.136,0a5.3,5.3,0,0,1-5.2-4,5.829,5.829,0,0,1-.182-1.411C0,53.442.01,49.389,0,45.338a5.312,5.312,0,0,1,4.013-5.171A5.733,5.733,0,0,1,5.425,40c3.451-.014,6.9-.008,10.353-.008Z" transform="translate(0 -24.923)" fill="#fff"/>
    <path id="Path_1403" data-name="Path 1403" d="M98.581,54.263c0,2.918-.016,5.836.009,8.753a.9.9,0,0,1-1.37.838c-1-.576-2.029-1.107-3.045-1.657-1.47-.8-2.934-1.6-4.412-2.381a1.156,1.156,0,0,1-.7-1.132q.018-4.47,0-8.941a1.022,1.022,0,0,1,.588-.982c1.176-.633,2.355-1.262,3.528-1.9,1.358-.74,2.711-1.49,4.069-2.231a.867.867,0,0,1,1.3.532,1.6,1.6,0,0,1,.029.395q0,4.353,0,8.706Z" transform="translate(-55.504 -27.734)" fill="#fff"/>
    <path id="Path_1404" data-name="Path 1404" d="M52.172,12.983A6.492,6.492,0,1,1,58.6,6.737a6.466,6.466,0,0,1-6.431,6.246" transform="translate(-28.445 0.001)" fill="#fff"/>
    <path id="Path_1405" data-name="Path 1405" d="M10.377,12.983A6.488,6.488,0,1,1,16.82,6.674a6.493,6.493,0,0,1-6.443,6.308" transform="translate(-2.406 -0.004)" fill="#fff"/>
  </g>
</svg>
