<svg xmlns="http://www.w3.org/2000/svg" width="42.54" height="37.855" viewBox="0 0 42.54 37.855">
  <path id="Path_1406" data-name="Path 1406" d="M23.653,22.491c-.042.116,3.341,3.581.456,6.98-3.425,4.033-7.57-.583-7.57-.583l.868-.226a1.648,1.648,0,0,0,1.228-1.832c-.2-1.291-.181-3.117,1.2-3.976a3.292,3.292,0,0,0,1.633.426,3.533,3.533,0,0,0,2.186-.789M28.166.4a3.474,3.474,0,0,0-2.461,2.961l-.039.357L24.6,17.7a3.292,3.292,0,0,1-6.585.026L16.7,3.641a3.509,3.509,0,0,0-2.428-2.7C3.826-2.217-5.727,11.911,4.134,21.7l15.6,15.479a2.339,2.339,0,0,0,3.3-.013l15.479-15.6C47.359,12.656,40.168,0,30.994,0a10.161,10.161,0,0,0-2.827.4" transform="translate(0)" fill="#fff"/>
</svg>
