<svg id="Group_1506" data-name="Group 1506" xmlns="http://www.w3.org/2000/svg" width="41.823" height="33.955" viewBox="0 0 41.823 33.955">
  <path id="Path_1397" data-name="Path 1397" d="M28.935,42.5H17.884a1.516,1.516,0,0,0-1.515,1.515v.942a1.514,1.514,0,0,0,1.515,1.515H33.578a1.514,1.514,0,0,0,1.515-1.515v-.942A1.516,1.516,0,0,0,33.578,42.5Z" transform="translate(-4.82 -12.515)" fill="#fff"/>
  <path id="Path_1398" data-name="Path 1398" d="M37.759,0H4.063A4.063,4.063,0,0,0,0,4.062V18.514a4.063,4.063,0,0,0,4.063,4.064H17.707v4.394a.814.814,0,0,0,.815.814H23.3a.814.814,0,0,0,.814-.814V22.577H37.759a4.066,4.066,0,0,0,4.064-4.064V4.062A4.065,4.065,0,0,0,37.759,0" fill="#fff"/>
</svg>
