<svg xmlns="http://www.w3.org/2000/svg" width="37.358" height="35.599" viewBox="0 0 37.358 35.599">
  <g id="Group_1509" data-name="Group 1509" transform="translate(0 0)">
    <path id="Path_1399" data-name="Path 1399" d="M12.2,31.4A1.431,1.431,0,0,0,10.9,32.608c-1.065,6.506,1.689,9.939,2.355,10.926a1.422,1.422,0,0,0,.52.474,8.262,8.262,0,0,0,6.132.409,1.428,1.428,0,0,0,.692-2.275,11.056,11.056,0,0,1-1.975-8.936,1.421,1.421,0,0,0-1.145-1.666,17.7,17.7,0,0,0-3.014-.223c-.858,0-1.657.04-2.26.083" transform="translate(-3.138 -9.222)" fill="#fff"/>
    <path id="Path_1400" data-name="Path 1400" d="M16.535,11.173a1.019,1.019,0,0,0-1.127-1.011,17.813,17.813,0,0,1-1.881.1H4.663a2.769,2.769,0,0,0-2.768,2.769.065.065,0,0,1-.066.063H.991A.991.991,0,0,0,0,14.091v4.09a.991.991,0,0,0,.991.991h.838a.065.065,0,0,1,.066.066v.443a2.767,2.767,0,0,0,2.768,2.767h9.324s.514,0,1.416.1a1.023,1.023,0,0,0,1.132-1.012Z" transform="translate(0 -2.99)" fill="#fff"/>
    <path id="Path_1401" data-name="Path 1401" d="M42.719,10.139v-7.8A2.332,2.332,0,0,0,39.113.382c-2.071,1.349-7.2,3.928-9.165,4.9a1.4,1.4,0,0,0-.775,1.262l.083,13.3.964,1.367a34.011,34.011,0,0,1,8.8,4.633,2.334,2.334,0,0,0,3.7-1.893v-7.23a.062.062,0,0,1,.061-.063,3.229,3.229,0,0,0,0-6.457.062.062,0,0,1-.061-.063" transform="translate(-8.591 0.001)" fill="#fff"/>
  </g>
</svg>
