<svg xmlns="http://www.w3.org/2000/svg" width="63.134" height="62.473" viewBox="0 0 63.134 62.473">
  <g id="Grupo_1766" data-name="Grupo 1766" transform="translate(-1478.439 -719.763)">
    <g id="Grupo_1762" data-name="Grupo 1762" transform="translate(650.37 102.703)">
      <path id="Trazado_1432" data-name="Trazado 1432" d="M41.811,34.707c-.24,2.355-.476,4.63-.705,6.905q-.7,6.9-1.39,13.8c-.151,1.494-.291,2.989-.452,4.482a1.877,1.877,0,0,1-1.9,1.767q-1.573.043-3.149,0a1.9,1.9,0,0,1-1.91-1.839c-.8-7.9-1.575-15.8-2.409-23.692-.255-2.415-.655-4.816-1.017-7.219a3.463,3.463,0,0,0-.416-.971q-4.252-8.431-8.508-16.859a2.85,2.85,0,0,1,1.216-4.079,2.828,2.828,0,0,1,4.012,1.406c1.09,2.12,2.151,4.255,3.229,6.382.17.335.358.661.452.833,1.169-.074,2.2-.189,3.24-.2q4.295-.038,8.59,0a3.286,3.286,0,0,1,3.532,2.691c.259,1.768.491,3.54.745,5.31.345,2.406.685,4.814,1.058,7.216a3.346,3.346,0,0,1-3.211,4.014C42.511,34.674,42.2,34.687,41.811,34.707Z" transform="translate(823.841 616.348)" fill="none" stroke="#fff" stroke-miterlimit="10" stroke-width="3"/>
      <path id="Trazado_1433" data-name="Trazado 1433" d="M66.408,18.7c1.646,0,3.291-.017,4.937,0,2.16.028,3.283,1.157,3.562,3.294.444,3.4.985,6.791,1.487,10.185.1.707.221,1.412.319,2.121a3.383,3.383,0,0,1-3.023,3.608c-1.28.127-1.267.128-1.4,1.42q-.968,9.6-1.948,19.205-.231,2.276-.45,4.553a1.89,1.89,0,0,1-1.9,1.846q-1.573.05-3.148,0a1.872,1.872,0,0,1-1.921-1.822q-.718-7.041-1.417-14.084c-.311-3.082-.653-6.161-.924-9.247a3.584,3.584,0,0,1,.3-1.693,8.723,8.723,0,0,0,.65-5.021c-.653-4.213-1.227-8.439-1.861-12.655-.206-1.373-.094-1.619,1.369-1.673,1.786-.066,3.576-.015,5.365-.015Z" transform="translate(812.962 613.075)" fill="none" stroke="#fff" stroke-miterlimit="10" stroke-width="3"/>
      <path id="Trazado_1434" data-name="Trazado 1434" d="M8.431,18.7c.906,0,1.816-.039,2.717.024a1.136,1.136,0,0,1,.811.491c2.37,4.623,4.772,9.233,7,13.924a14.312,14.312,0,0,1,.752,3.906c.023.151-.212.45-.385.507a6,6,0,0,1-1.653.369c-.6.017-.849.212-.9.81C16.6,40.721,16.4,42.711,16.2,44.7q-.693,6.9-1.39,13.8c-.155,1.541-.3,3.083-.461,4.624a1.882,1.882,0,0,1-1.936,1.808c-1.025.031-2.052.027-3.076,0a1.882,1.882,0,0,1-1.959-1.858Q6.3,52.371,5.23,41.665c-.093-.925-.228-1.848-.271-2.774-.032-.705-.271-.993-1.025-.993A3.253,3.253,0,0,1,.595,35.074a5.42,5.42,0,0,1,.093-1.627c.534-3.678,1.065-7.357,1.635-11.029.472-3.038,1.31-3.723,4.39-3.722Z" transform="translate(829 613.076)" fill="none" stroke="#fff" stroke-miterlimit="10" stroke-width="3"/>
      <path id="Trazado_1435" data-name="Trazado 1435" d="M66.876.565a5.622,5.622,0,0,1,5.567,5.563,5.577,5.577,0,0,1-11.154.054A5.626,5.626,0,0,1,66.876.565Z" transform="translate(812.502 617.999)" fill="none" stroke="#fff" stroke-miterlimit="10" stroke-width="3"/>
      <path id="Trazado_1436" data-name="Trazado 1436" d="M45.344,6.168a5.575,5.575,0,1,1-11.149-.1,5.575,5.575,0,0,1,11.149.1Z" transform="translate(819.863 618)" fill="none" stroke="#fff" stroke-miterlimit="10" stroke-width="3"/>
      <path id="Trazado_1437" data-name="Trazado 1437" d="M15.2,1.346c-3.686,2.639-4.637,6.065-2.9,10.242-1.973.16-4.137-1.44-4.919-3.606A5.586,5.586,0,0,1,9.5,1.546C11.165.376,13.894.243,15.2,1.346Z" transform="translate(827.233 617.992)" fill="none" stroke="#fff" stroke-miterlimit="10" stroke-width="3"/>
    </g>
  </g>
</svg>
