<svg xmlns="http://www.w3.org/2000/svg" xmlns:xlink="http://www.w3.org/1999/xlink" width="148.016" height="39.712" viewBox="0 0 148.016 39.712">
  <defs>
    <clipPath id="clip-path">
      <rect id="Rectangle_653" data-name="Rectangle 653" width="91.016" height="21.654" fill="none"/>
    </clipPath>
  </defs>
  <g id="Group_1494" data-name="Group 1494" transform="translate(-140 -52.144)">
    <g id="Group_1493" data-name="Group 1493" transform="translate(-444 -803.856)">
      <path id="Path_1382" data-name="Path 1382" d="M30.85,13.922l-1,1L17.979,26.792a2.484,2.484,0,0,1-3.508,0L12.92,25.241a2.482,2.482,0,0,1,0-3.51L24.791,9.861l1-1C21.79-4.281,0-2.805,0,13.294V37.175a2.537,2.537,0,0,0,2.538,2.537h23.88c16.1,0,17.574-21.79,4.432-25.79M13.208,31.2,9.05,32.583a1.519,1.519,0,0,1-1.921-1.921L8.515,26.5a1,1,0,0,1,1.771-.259,12.536,12.536,0,0,0,3.181,3.18,1,1,0,0,1-.259,1.771" transform="translate(584 856)" fill="#fff"/>
      <path id="Path_1383" data-name="Path 1383" d="M29.125,7.408A16.728,16.728,0,0,0,32.3,10.587a1.4,1.4,0,0,0,1.752-.144l3.168-3.168a1.1,1.1,0,0,0,0-1.619,15.6,15.6,0,0,1-3.168-3.169,1.1,1.1,0,0,0-1.619,0q-1.584,1.587-3.168,3.169a1.4,1.4,0,0,0-.143,1.752" transform="translate(584 856)" fill="#fff"/>
    </g>
    <g id="Group_1495" data-name="Group 1495" transform="translate(197 61.173)">
      <path id="Path_1384" data-name="Path 1384" d="M0,0V21.438H3.981V3.37Z" transform="translate(0 0)" fill="#fff"/>
      <g id="Group_1496" data-name="Group 1496" transform="translate(0 0)">
        <g id="Group_1495-2" data-name="Group 1495" clip-path="url(#clip-path)">
          <path id="Path_1385" data-name="Path 1385" d="M17.568,3.95a9.319,9.319,0,0,0-4.517-1.07A9.165,9.165,0,0,0,8.58,3.95,8.027,8.027,0,0,0,5.488,6.909a8.206,8.206,0,0,0-1.133,4.332,8.251,8.251,0,0,0,1.133,4.318A8.1,8.1,0,0,0,8.58,18.545a9.062,9.062,0,0,0,4.471,1.087,9.213,9.213,0,0,0,4.517-1.087,7.959,7.959,0,0,0,3.093-2.986,8.355,8.355,0,0,0,1.118-4.318,8.307,8.307,0,0,0-1.118-4.349A7.923,7.923,0,0,0,17.568,3.95m-.276,10.016a4.339,4.339,0,0,1-1.73,1.775,5.084,5.084,0,0,1-2.511.614,4.925,4.925,0,0,1-2.464-.614,4.461,4.461,0,0,1-1.732-1.775,5.551,5.551,0,0,1-.643-2.726A5.516,5.516,0,0,1,8.855,8.5a4.469,4.469,0,0,1,1.732-1.761,4.985,4.985,0,0,1,2.494-.611,5.02,5.02,0,0,1,2.481.611A4.345,4.345,0,0,1,17.293,8.5a5.625,5.625,0,0,1,.628,2.741,5.661,5.661,0,0,1-.628,2.726" transform="translate(3.055 2.021)" fill="#fff"/>
          <path id="Path_1386" data-name="Path 1386" d="M43.53,5.385v-2.4H39.886V19.34h3.828V11.408A5.1,5.1,0,0,1,45,7.626a4.864,4.864,0,0,1,3.461-1.5c.141,0,.286,0,.429.012a2.872,2.872,0,0,1,.459.077V3.111a8.311,8.311,0,0,0-3.935.551A5.121,5.121,0,0,0,43.53,5.385" transform="translate(27.977 2.097)" fill="#fff"/>
          <path id="Path_1387" data-name="Path 1387" d="M57.371,17.22a3.363,3.363,0,0,1-2.144.674,2.165,2.165,0,0,1-1.669-.643,2.557,2.557,0,0,1-.6-1.809V7.663h4.379V4.6H52.961V.864H49.133V4.6h-2.7V7.663h2.7v7.873a5.406,5.406,0,0,0,1.47,4.117,5.816,5.816,0,0,0,4.167,1.4,7.494,7.494,0,0,0,2.02-.276,4.5,4.5,0,0,0,1.654-.827Z" transform="translate(32.573 0.607)" fill="#fff"/>
          <path id="Path_1388" data-name="Path 1388" d="M34.485,0,24.838,21.438h4.1l2.123-4.961L32.4,13.353l4.015-9.383,4.029,9.383,1.342,3.124,2.13,4.961h4.163L38.405,0Z" transform="translate(17.422 0.001)" fill="#fff"/>
          <path id="Path_1389" data-name="Path 1389" d="M32.868.127l-2.13,4.961L29.4,8.212l-4.029,9.382L21.351,8.212,20.013,5.088,17.89.127h-4.1l9.647,21.438h3.92L37.031.127Z" transform="translate(9.671 0.09)" fill="#fff"/>
        </g>
      </g>
    </g>
  </g>
</svg>
