<svg xmlns="http://www.w3.org/2000/svg" width="1866.647" height="966.367" viewBox="0 0 1866.647 966.367">
  <path id="Path_1427" data-name="Path 1427" d="M100.113,0A100.113,100.113,0,0,0,0,100.113v680.3A100.113,100.113,0,0,0,100.113,880.525h780.47a100.111,100.111,0,0,1,80.74,40.921h0a100.116,100.116,0,0,0,80.741,40.921h720.471a100.113,100.113,0,0,0,100.112-100.113v-680.3A100.113,100.113,0,0,0,1762.535,81.844H982.064a100.112,100.112,0,0,1-80.74-40.922A100.115,100.115,0,0,0,820.583,0Z" transform="translate(2 1.999)" fill="none" stroke="#707070" stroke-linecap="round" stroke-linejoin="round" stroke-width="4"/>
</svg>
