<svg xmlns="http://www.w3.org/2000/svg" width="47.655" height="54.011" viewBox="0 0 47.655 54.011">
  <g id="Grupo_1769" data-name="Grupo 1769" transform="translate(0.502 0.502)">
    <g id="Grupo_1771" data-name="Grupo 1771">
      <path id="Trazado_1477" data-name="Trazado 1477" d="M46.153,40.29V37.4l-2.987-.169a10.743,10.743,0,0,0-1.986-4.8L43.174,30.2l-2.046-2.046L38.9,30.147a10.747,10.747,0,0,0-4.8-1.989l-.168-2.986h-2.9l-.168,2.986a10.756,10.756,0,0,0-4.8,1.989l-2.23-1.994L21.8,30.2l1.993,2.232a10.74,10.74,0,0,0-1.987,4.8l-2.987.169v2.9l2.987.168a10.752,10.752,0,0,0,1.987,4.8L21.8,47.486l2.046,2.046,2.23-1.993a10.763,10.763,0,0,0,4.8,1.984l.168,2.986h2.894l.168-2.986a10.756,10.756,0,0,0,4.8-1.989l2.23,1.994,2.046-2.046L41.18,45.255a10.739,10.739,0,0,0,1.986-4.8ZM32.484,43.6a4.764,4.764,0,1,1,4.764-4.764A4.764,4.764,0,0,1,32.484,43.6Z" fill="none" stroke="#fff" stroke-linecap="round" stroke-linejoin="round" stroke-width="2"/>
      <path id="Trazado_1478" data-name="Trazado 1478" d="M25.906,9.912A9.415,9.415,0,1,1,16.49.5,9.415,9.415,0,0,1,25.906,9.912Z" fill="none" stroke="#fff" stroke-linecap="round" stroke-linejoin="round" stroke-width="2"/>
      <path id="Trazado_1479" data-name="Trazado 1479" d="M22.575,46.364H.5V35.32a16,16,0,0,1,30.133-7.479" fill="none" stroke="#fff" stroke-linecap="round" stroke-linejoin="round" stroke-width="2"/>
    </g>
  </g>
</svg>
